<mxfile host="app.diagrams.net" modified="2023-07-11T19:05:46.230Z" agent="Mozilla/5.0 (X11; Ubuntu; Linux x86_64; rv:109.0) Gecko/20100101 Firefox/115.0" etag="-HQz28EQMK3zPP3Uz0dm" version="21.6.1" type="device">
  <diagram name="Page-1" id="Bc5GJkbn-tEceONIMzTU">
    <mxGraphModel dx="854" dy="519" grid="1" gridSize="10" guides="1" tooltips="1" connect="1" arrows="1" fold="1" page="1" pageScale="1" pageWidth="850" pageHeight="1100" math="0" shadow="0">
      <root>
        <mxCell id="0" />
        <mxCell id="1" parent="0" />
        <mxCell id="vSFo7Jb99_2Wq5jZSn7a-199" value="" style="shape=table;startSize=0;container=1;collapsible=0;childLayout=tableLayout;fontSize=16;fillColor=none;strokeColor=#1BA1E2;strokeWidth=3;" vertex="1" parent="1">
          <mxGeometry x="205" y="515" width="80" height="20" as="geometry" />
        </mxCell>
        <mxCell id="vSFo7Jb99_2Wq5jZSn7a-200" value="" style="shape=tableRow;horizontal=0;startSize=0;swimlaneHead=0;swimlaneBody=0;strokeColor=inherit;top=0;left=0;bottom=0;right=0;collapsible=0;dropTarget=0;fillColor=none;points=[[0,0.5],[1,0.5]];portConstraint=eastwest;fontSize=16;strokeWidth=3;" vertex="1" parent="vSFo7Jb99_2Wq5jZSn7a-199">
          <mxGeometry width="80" height="20" as="geometry" />
        </mxCell>
        <mxCell id="vSFo7Jb99_2Wq5jZSn7a-201" value="" style="shape=partialRectangle;html=1;whiteSpace=wrap;connectable=0;strokeColor=inherit;overflow=hidden;fillColor=none;top=0;left=0;bottom=0;right=0;pointerEvents=1;fontSize=16;" vertex="1" parent="vSFo7Jb99_2Wq5jZSn7a-200">
          <mxGeometry width="27" height="20" as="geometry">
            <mxRectangle width="27" height="20" as="alternateBounds" />
          </mxGeometry>
        </mxCell>
        <mxCell id="vSFo7Jb99_2Wq5jZSn7a-202" value="" style="shape=partialRectangle;html=1;whiteSpace=wrap;connectable=0;strokeColor=inherit;overflow=hidden;fillColor=none;top=0;left=0;bottom=0;right=0;pointerEvents=1;fontSize=16;" vertex="1" parent="vSFo7Jb99_2Wq5jZSn7a-200">
          <mxGeometry x="27" width="26" height="20" as="geometry">
            <mxRectangle width="26" height="20" as="alternateBounds" />
          </mxGeometry>
        </mxCell>
        <mxCell id="vSFo7Jb99_2Wq5jZSn7a-203" value="" style="shape=partialRectangle;html=1;whiteSpace=wrap;connectable=0;strokeColor=inherit;overflow=hidden;fillColor=none;top=0;left=0;bottom=0;right=0;pointerEvents=1;fontSize=16;" vertex="1" parent="vSFo7Jb99_2Wq5jZSn7a-200">
          <mxGeometry x="53" width="27" height="20" as="geometry">
            <mxRectangle width="27" height="20" as="alternateBounds" />
          </mxGeometry>
        </mxCell>
        <mxCell id="vSFo7Jb99_2Wq5jZSn7a-273" value="&lt;font style=&quot;font-size: 16px;&quot; face=&quot;Courier New&quot;&gt;Q&lt;br&gt;&lt;/font&gt;" style="rounded=1;whiteSpace=wrap;html=1;opacity=60;fillColor=#1ba1e2;fontColor=#ffffff;strokeColor=#006EAF;" vertex="1" parent="1">
          <mxGeometry x="95" y="450" width="90" height="30" as="geometry" />
        </mxCell>
        <mxCell id="vSFo7Jb99_2Wq5jZSn7a-276" value="" style="endArrow=classic;html=1;rounded=0;fillColor=#1ba1e2;strokeColor=#006EAF;strokeWidth=3;exitX=0.5;exitY=0;exitDx=0;exitDy=0;" edge="1" parent="1" source="vSFo7Jb99_2Wq5jZSn7a-199">
          <mxGeometry width="50" height="50" relative="1" as="geometry">
            <mxPoint x="245" y="505" as="sourcePoint" />
            <mxPoint x="245" y="480" as="targetPoint" />
          </mxGeometry>
        </mxCell>
        <mxCell id="vSFo7Jb99_2Wq5jZSn7a-278" value="" style="endArrow=classic;html=1;rounded=0;fillColor=#1ba1e2;strokeColor=#006EAF;strokeWidth=3;entryX=0.5;entryY=1;entryDx=0;entryDy=0;" edge="1" parent="1" target="vSFo7Jb99_2Wq5jZSn7a-273">
          <mxGeometry width="50" height="50" relative="1" as="geometry">
            <mxPoint x="245" y="505" as="sourcePoint" />
            <mxPoint x="255" y="490" as="targetPoint" />
            <Array as="points">
              <mxPoint x="140" y="505" />
            </Array>
          </mxGeometry>
        </mxCell>
        <mxCell id="vSFo7Jb99_2Wq5jZSn7a-279" value="" style="endArrow=classic;html=1;rounded=0;fillColor=#1ba1e2;strokeColor=#006EAF;strokeWidth=3;entryX=0.5;entryY=1;entryDx=0;entryDy=0;" edge="1" parent="1" target="vSFo7Jb99_2Wq5jZSn7a-282">
          <mxGeometry width="50" height="50" relative="1" as="geometry">
            <mxPoint x="245" y="505" as="sourcePoint" />
            <mxPoint x="265" y="500" as="targetPoint" />
            <Array as="points">
              <mxPoint x="350" y="505" />
            </Array>
          </mxGeometry>
        </mxCell>
        <mxCell id="vSFo7Jb99_2Wq5jZSn7a-281" value="&lt;font style=&quot;font-size: 16px;&quot; face=&quot;Courier New&quot;&gt;K&lt;br&gt;&lt;/font&gt;" style="rounded=1;whiteSpace=wrap;html=1;opacity=60;fillColor=#1ba1e2;fontColor=#ffffff;strokeColor=#006EAF;" vertex="1" parent="1">
          <mxGeometry x="200" y="450" width="90" height="30" as="geometry" />
        </mxCell>
        <mxCell id="vSFo7Jb99_2Wq5jZSn7a-282" value="&lt;font style=&quot;font-size: 16px;&quot; face=&quot;Courier New&quot;&gt;V&lt;br&gt;&lt;/font&gt;" style="rounded=1;whiteSpace=wrap;html=1;opacity=60;fillColor=#1ba1e2;fontColor=#ffffff;strokeColor=#006EAF;" vertex="1" parent="1">
          <mxGeometry x="305" y="450" width="90" height="30" as="geometry" />
        </mxCell>
        <mxCell id="vSFo7Jb99_2Wq5jZSn7a-283" value="" style="endArrow=classic;html=1;rounded=0;fillColor=#1ba1e2;strokeColor=#006EAF;strokeWidth=3;exitX=0.5;exitY=0;exitDx=0;exitDy=0;" edge="1" parent="1">
          <mxGeometry width="50" height="50" relative="1" as="geometry">
            <mxPoint x="140" y="450" as="sourcePoint" />
            <mxPoint x="140" y="415" as="targetPoint" />
          </mxGeometry>
        </mxCell>
        <mxCell id="vSFo7Jb99_2Wq5jZSn7a-284" value="" style="endArrow=classic;html=1;rounded=0;fillColor=#1ba1e2;strokeColor=#006EAF;strokeWidth=3;exitX=0.5;exitY=0;exitDx=0;exitDy=0;" edge="1" parent="1">
          <mxGeometry width="50" height="50" relative="1" as="geometry">
            <mxPoint x="245" y="450" as="sourcePoint" />
            <mxPoint x="245" y="415" as="targetPoint" />
          </mxGeometry>
        </mxCell>
        <mxCell id="vSFo7Jb99_2Wq5jZSn7a-285" value="" style="endArrow=classic;html=1;rounded=0;fillColor=#1ba1e2;strokeColor=#006EAF;strokeWidth=3;exitX=0.5;exitY=0;exitDx=0;exitDy=0;" edge="1" parent="1">
          <mxGeometry width="50" height="50" relative="1" as="geometry">
            <mxPoint x="350" y="450" as="sourcePoint" />
            <mxPoint x="350" y="415" as="targetPoint" />
          </mxGeometry>
        </mxCell>
        <mxCell id="vSFo7Jb99_2Wq5jZSn7a-286" value="" style="shape=table;startSize=0;container=1;collapsible=0;childLayout=tableLayout;fontSize=16;fillColor=none;strokeColor=#1BA1E2;strokeWidth=3;" vertex="1" parent="1">
          <mxGeometry x="100" y="395" width="80" height="20" as="geometry" />
        </mxCell>
        <mxCell id="vSFo7Jb99_2Wq5jZSn7a-287" value="" style="shape=tableRow;horizontal=0;startSize=0;swimlaneHead=0;swimlaneBody=0;strokeColor=inherit;top=0;left=0;bottom=0;right=0;collapsible=0;dropTarget=0;fillColor=none;points=[[0,0.5],[1,0.5]];portConstraint=eastwest;fontSize=16;strokeWidth=3;" vertex="1" parent="vSFo7Jb99_2Wq5jZSn7a-286">
          <mxGeometry width="80" height="20" as="geometry" />
        </mxCell>
        <mxCell id="vSFo7Jb99_2Wq5jZSn7a-288" value="" style="shape=partialRectangle;html=1;whiteSpace=wrap;connectable=0;strokeColor=inherit;overflow=hidden;fillColor=none;top=0;left=0;bottom=0;right=0;pointerEvents=1;fontSize=16;" vertex="1" parent="vSFo7Jb99_2Wq5jZSn7a-287">
          <mxGeometry width="27" height="20" as="geometry">
            <mxRectangle width="27" height="20" as="alternateBounds" />
          </mxGeometry>
        </mxCell>
        <mxCell id="vSFo7Jb99_2Wq5jZSn7a-289" value="" style="shape=partialRectangle;html=1;whiteSpace=wrap;connectable=0;strokeColor=inherit;overflow=hidden;fillColor=none;top=0;left=0;bottom=0;right=0;pointerEvents=1;fontSize=16;" vertex="1" parent="vSFo7Jb99_2Wq5jZSn7a-287">
          <mxGeometry x="27" width="26" height="20" as="geometry">
            <mxRectangle width="26" height="20" as="alternateBounds" />
          </mxGeometry>
        </mxCell>
        <mxCell id="vSFo7Jb99_2Wq5jZSn7a-290" value="" style="shape=partialRectangle;html=1;whiteSpace=wrap;connectable=0;strokeColor=inherit;overflow=hidden;fillColor=none;top=0;left=0;bottom=0;right=0;pointerEvents=1;fontSize=16;" vertex="1" parent="vSFo7Jb99_2Wq5jZSn7a-287">
          <mxGeometry x="53" width="27" height="20" as="geometry">
            <mxRectangle width="27" height="20" as="alternateBounds" />
          </mxGeometry>
        </mxCell>
        <mxCell id="vSFo7Jb99_2Wq5jZSn7a-291" value="" style="shape=table;startSize=0;container=1;collapsible=0;childLayout=tableLayout;fontSize=16;fillColor=none;strokeColor=#1BA1E2;strokeWidth=3;" vertex="1" parent="1">
          <mxGeometry x="205" y="395" width="80" height="20" as="geometry" />
        </mxCell>
        <mxCell id="vSFo7Jb99_2Wq5jZSn7a-292" value="" style="shape=tableRow;horizontal=0;startSize=0;swimlaneHead=0;swimlaneBody=0;strokeColor=inherit;top=0;left=0;bottom=0;right=0;collapsible=0;dropTarget=0;fillColor=none;points=[[0,0.5],[1,0.5]];portConstraint=eastwest;fontSize=16;strokeWidth=3;" vertex="1" parent="vSFo7Jb99_2Wq5jZSn7a-291">
          <mxGeometry width="80" height="20" as="geometry" />
        </mxCell>
        <mxCell id="vSFo7Jb99_2Wq5jZSn7a-293" value="" style="shape=partialRectangle;html=1;whiteSpace=wrap;connectable=0;strokeColor=inherit;overflow=hidden;fillColor=none;top=0;left=0;bottom=0;right=0;pointerEvents=1;fontSize=16;" vertex="1" parent="vSFo7Jb99_2Wq5jZSn7a-292">
          <mxGeometry width="27" height="20" as="geometry">
            <mxRectangle width="27" height="20" as="alternateBounds" />
          </mxGeometry>
        </mxCell>
        <mxCell id="vSFo7Jb99_2Wq5jZSn7a-294" value="" style="shape=partialRectangle;html=1;whiteSpace=wrap;connectable=0;strokeColor=inherit;overflow=hidden;fillColor=none;top=0;left=0;bottom=0;right=0;pointerEvents=1;fontSize=16;" vertex="1" parent="vSFo7Jb99_2Wq5jZSn7a-292">
          <mxGeometry x="27" width="26" height="20" as="geometry">
            <mxRectangle width="26" height="20" as="alternateBounds" />
          </mxGeometry>
        </mxCell>
        <mxCell id="vSFo7Jb99_2Wq5jZSn7a-295" value="" style="shape=partialRectangle;html=1;whiteSpace=wrap;connectable=0;strokeColor=inherit;overflow=hidden;fillColor=none;top=0;left=0;bottom=0;right=0;pointerEvents=1;fontSize=16;" vertex="1" parent="vSFo7Jb99_2Wq5jZSn7a-292">
          <mxGeometry x="53" width="27" height="20" as="geometry">
            <mxRectangle width="27" height="20" as="alternateBounds" />
          </mxGeometry>
        </mxCell>
        <mxCell id="vSFo7Jb99_2Wq5jZSn7a-296" value="" style="shape=table;startSize=0;container=1;collapsible=0;childLayout=tableLayout;fontSize=16;fillColor=none;strokeColor=#1BA1E2;strokeWidth=3;" vertex="1" parent="1">
          <mxGeometry x="310" y="395" width="80" height="20" as="geometry" />
        </mxCell>
        <mxCell id="vSFo7Jb99_2Wq5jZSn7a-297" value="" style="shape=tableRow;horizontal=0;startSize=0;swimlaneHead=0;swimlaneBody=0;strokeColor=inherit;top=0;left=0;bottom=0;right=0;collapsible=0;dropTarget=0;fillColor=none;points=[[0,0.5],[1,0.5]];portConstraint=eastwest;fontSize=16;strokeWidth=3;" vertex="1" parent="vSFo7Jb99_2Wq5jZSn7a-296">
          <mxGeometry width="80" height="20" as="geometry" />
        </mxCell>
        <mxCell id="vSFo7Jb99_2Wq5jZSn7a-298" value="" style="shape=partialRectangle;html=1;whiteSpace=wrap;connectable=0;strokeColor=inherit;overflow=hidden;fillColor=none;top=0;left=0;bottom=0;right=0;pointerEvents=1;fontSize=16;" vertex="1" parent="vSFo7Jb99_2Wq5jZSn7a-297">
          <mxGeometry width="27" height="20" as="geometry">
            <mxRectangle width="27" height="20" as="alternateBounds" />
          </mxGeometry>
        </mxCell>
        <mxCell id="vSFo7Jb99_2Wq5jZSn7a-299" value="" style="shape=partialRectangle;html=1;whiteSpace=wrap;connectable=0;strokeColor=inherit;overflow=hidden;fillColor=none;top=0;left=0;bottom=0;right=0;pointerEvents=1;fontSize=16;" vertex="1" parent="vSFo7Jb99_2Wq5jZSn7a-297">
          <mxGeometry x="27" width="26" height="20" as="geometry">
            <mxRectangle width="26" height="20" as="alternateBounds" />
          </mxGeometry>
        </mxCell>
        <mxCell id="vSFo7Jb99_2Wq5jZSn7a-300" value="" style="shape=partialRectangle;html=1;whiteSpace=wrap;connectable=0;strokeColor=inherit;overflow=hidden;fillColor=none;top=0;left=0;bottom=0;right=0;pointerEvents=1;fontSize=16;" vertex="1" parent="vSFo7Jb99_2Wq5jZSn7a-297">
          <mxGeometry x="53" width="27" height="20" as="geometry">
            <mxRectangle width="27" height="20" as="alternateBounds" />
          </mxGeometry>
        </mxCell>
        <mxCell id="vSFo7Jb99_2Wq5jZSn7a-301" value="&lt;font style=&quot;font-size: 16px;&quot; face=&quot;Courier New&quot;&gt;q&lt;sub&gt;1&lt;/sub&gt;&lt;/font&gt;" style="text;html=1;strokeColor=none;fillColor=none;align=center;verticalAlign=middle;whiteSpace=wrap;rounded=0;fontColor=#FFFFFF;" vertex="1" parent="1">
          <mxGeometry x="80" y="390" width="20" height="30" as="geometry" />
        </mxCell>
        <mxCell id="vSFo7Jb99_2Wq5jZSn7a-303" value="&lt;font style=&quot;font-size: 16px;&quot; face=&quot;Courier New&quot;&gt;k&lt;sub&gt;1&lt;/sub&gt;&lt;/font&gt;" style="text;html=1;strokeColor=none;fillColor=none;align=center;verticalAlign=middle;whiteSpace=wrap;rounded=0;fontColor=#FFFFFF;" vertex="1" parent="1">
          <mxGeometry x="185" y="390" width="20" height="30" as="geometry" />
        </mxCell>
        <mxCell id="vSFo7Jb99_2Wq5jZSn7a-304" value="&lt;font style=&quot;font-size: 16px;&quot; face=&quot;Courier New&quot;&gt;v&lt;sub&gt;1&lt;/sub&gt;&lt;/font&gt;" style="text;html=1;strokeColor=none;fillColor=none;align=center;verticalAlign=middle;whiteSpace=wrap;rounded=0;fontColor=#FFFFFF;" vertex="1" parent="1">
          <mxGeometry x="290" y="390" width="20" height="30" as="geometry" />
        </mxCell>
        <mxCell id="vSFo7Jb99_2Wq5jZSn7a-306" value="" style="shape=table;startSize=0;container=1;collapsible=0;childLayout=tableLayout;fontSize=16;fillColor=none;strokeColor=#1BA1E2;strokeWidth=3;" vertex="1" parent="1">
          <mxGeometry x="535" y="515" width="80" height="20" as="geometry" />
        </mxCell>
        <mxCell id="vSFo7Jb99_2Wq5jZSn7a-307" value="" style="shape=tableRow;horizontal=0;startSize=0;swimlaneHead=0;swimlaneBody=0;strokeColor=inherit;top=0;left=0;bottom=0;right=0;collapsible=0;dropTarget=0;fillColor=none;points=[[0,0.5],[1,0.5]];portConstraint=eastwest;fontSize=16;strokeWidth=3;" vertex="1" parent="vSFo7Jb99_2Wq5jZSn7a-306">
          <mxGeometry width="80" height="20" as="geometry" />
        </mxCell>
        <mxCell id="vSFo7Jb99_2Wq5jZSn7a-308" value="" style="shape=partialRectangle;html=1;whiteSpace=wrap;connectable=0;strokeColor=inherit;overflow=hidden;fillColor=none;top=0;left=0;bottom=0;right=0;pointerEvents=1;fontSize=16;" vertex="1" parent="vSFo7Jb99_2Wq5jZSn7a-307">
          <mxGeometry width="27" height="20" as="geometry">
            <mxRectangle width="27" height="20" as="alternateBounds" />
          </mxGeometry>
        </mxCell>
        <mxCell id="vSFo7Jb99_2Wq5jZSn7a-309" value="" style="shape=partialRectangle;html=1;whiteSpace=wrap;connectable=0;strokeColor=inherit;overflow=hidden;fillColor=none;top=0;left=0;bottom=0;right=0;pointerEvents=1;fontSize=16;" vertex="1" parent="vSFo7Jb99_2Wq5jZSn7a-307">
          <mxGeometry x="27" width="26" height="20" as="geometry">
            <mxRectangle width="26" height="20" as="alternateBounds" />
          </mxGeometry>
        </mxCell>
        <mxCell id="vSFo7Jb99_2Wq5jZSn7a-310" value="" style="shape=partialRectangle;html=1;whiteSpace=wrap;connectable=0;strokeColor=inherit;overflow=hidden;fillColor=none;top=0;left=0;bottom=0;right=0;pointerEvents=1;fontSize=16;" vertex="1" parent="vSFo7Jb99_2Wq5jZSn7a-307">
          <mxGeometry x="53" width="27" height="20" as="geometry">
            <mxRectangle width="27" height="20" as="alternateBounds" />
          </mxGeometry>
        </mxCell>
        <mxCell id="vSFo7Jb99_2Wq5jZSn7a-311" value="&lt;font style=&quot;font-size: 16px;&quot; face=&quot;Courier New&quot;&gt;Q&lt;br&gt;&lt;/font&gt;" style="rounded=1;whiteSpace=wrap;html=1;opacity=60;fillColor=#1ba1e2;fontColor=#ffffff;strokeColor=#006EAF;" vertex="1" parent="1">
          <mxGeometry x="425" y="450" width="90" height="30" as="geometry" />
        </mxCell>
        <mxCell id="vSFo7Jb99_2Wq5jZSn7a-312" value="" style="endArrow=classic;html=1;rounded=0;fillColor=#1ba1e2;strokeColor=#006EAF;strokeWidth=3;exitX=0.5;exitY=0;exitDx=0;exitDy=0;" edge="1" parent="1" source="vSFo7Jb99_2Wq5jZSn7a-306">
          <mxGeometry width="50" height="50" relative="1" as="geometry">
            <mxPoint x="575" y="505" as="sourcePoint" />
            <mxPoint x="575" y="480" as="targetPoint" />
          </mxGeometry>
        </mxCell>
        <mxCell id="vSFo7Jb99_2Wq5jZSn7a-313" value="" style="endArrow=classic;html=1;rounded=0;fillColor=#1ba1e2;strokeColor=#006EAF;strokeWidth=3;entryX=0.5;entryY=1;entryDx=0;entryDy=0;" edge="1" parent="1" target="vSFo7Jb99_2Wq5jZSn7a-311">
          <mxGeometry width="50" height="50" relative="1" as="geometry">
            <mxPoint x="575" y="505" as="sourcePoint" />
            <mxPoint x="585" y="490" as="targetPoint" />
            <Array as="points">
              <mxPoint x="470" y="505" />
            </Array>
          </mxGeometry>
        </mxCell>
        <mxCell id="vSFo7Jb99_2Wq5jZSn7a-314" value="" style="endArrow=classic;html=1;rounded=0;fillColor=#1ba1e2;strokeColor=#006EAF;strokeWidth=3;entryX=0.5;entryY=1;entryDx=0;entryDy=0;" edge="1" parent="1" target="vSFo7Jb99_2Wq5jZSn7a-316">
          <mxGeometry width="50" height="50" relative="1" as="geometry">
            <mxPoint x="575" y="505" as="sourcePoint" />
            <mxPoint x="595" y="500" as="targetPoint" />
            <Array as="points">
              <mxPoint x="680" y="505" />
            </Array>
          </mxGeometry>
        </mxCell>
        <mxCell id="vSFo7Jb99_2Wq5jZSn7a-315" value="&lt;font style=&quot;font-size: 16px;&quot; face=&quot;Courier New&quot;&gt;K&lt;br&gt;&lt;/font&gt;" style="rounded=1;whiteSpace=wrap;html=1;opacity=60;fillColor=#1ba1e2;fontColor=#ffffff;strokeColor=#006EAF;" vertex="1" parent="1">
          <mxGeometry x="530" y="450" width="90" height="30" as="geometry" />
        </mxCell>
        <mxCell id="vSFo7Jb99_2Wq5jZSn7a-316" value="&lt;font style=&quot;font-size: 16px;&quot; face=&quot;Courier New&quot;&gt;V&lt;br&gt;&lt;/font&gt;" style="rounded=1;whiteSpace=wrap;html=1;opacity=60;fillColor=#1ba1e2;fontColor=#ffffff;strokeColor=#006EAF;" vertex="1" parent="1">
          <mxGeometry x="635" y="450" width="90" height="30" as="geometry" />
        </mxCell>
        <mxCell id="vSFo7Jb99_2Wq5jZSn7a-317" value="" style="endArrow=classic;html=1;rounded=0;fillColor=#1ba1e2;strokeColor=#006EAF;strokeWidth=3;exitX=0.5;exitY=0;exitDx=0;exitDy=0;" edge="1" parent="1">
          <mxGeometry width="50" height="50" relative="1" as="geometry">
            <mxPoint x="470" y="450" as="sourcePoint" />
            <mxPoint x="470" y="415" as="targetPoint" />
          </mxGeometry>
        </mxCell>
        <mxCell id="vSFo7Jb99_2Wq5jZSn7a-318" value="" style="endArrow=classic;html=1;rounded=0;fillColor=#1ba1e2;strokeColor=#006EAF;strokeWidth=3;exitX=0.5;exitY=0;exitDx=0;exitDy=0;" edge="1" parent="1">
          <mxGeometry width="50" height="50" relative="1" as="geometry">
            <mxPoint x="575" y="450" as="sourcePoint" />
            <mxPoint x="575" y="415" as="targetPoint" />
          </mxGeometry>
        </mxCell>
        <mxCell id="vSFo7Jb99_2Wq5jZSn7a-319" value="" style="endArrow=classic;html=1;rounded=0;fillColor=#1ba1e2;strokeColor=#006EAF;strokeWidth=3;exitX=0.5;exitY=0;exitDx=0;exitDy=0;" edge="1" parent="1">
          <mxGeometry width="50" height="50" relative="1" as="geometry">
            <mxPoint x="680" y="450" as="sourcePoint" />
            <mxPoint x="680" y="415" as="targetPoint" />
          </mxGeometry>
        </mxCell>
        <mxCell id="vSFo7Jb99_2Wq5jZSn7a-320" value="" style="shape=table;startSize=0;container=1;collapsible=0;childLayout=tableLayout;fontSize=16;fillColor=none;strokeColor=#1BA1E2;strokeWidth=3;" vertex="1" parent="1">
          <mxGeometry x="430" y="395" width="80" height="20" as="geometry" />
        </mxCell>
        <mxCell id="vSFo7Jb99_2Wq5jZSn7a-321" value="" style="shape=tableRow;horizontal=0;startSize=0;swimlaneHead=0;swimlaneBody=0;strokeColor=inherit;top=0;left=0;bottom=0;right=0;collapsible=0;dropTarget=0;fillColor=none;points=[[0,0.5],[1,0.5]];portConstraint=eastwest;fontSize=16;strokeWidth=3;" vertex="1" parent="vSFo7Jb99_2Wq5jZSn7a-320">
          <mxGeometry width="80" height="20" as="geometry" />
        </mxCell>
        <mxCell id="vSFo7Jb99_2Wq5jZSn7a-322" value="" style="shape=partialRectangle;html=1;whiteSpace=wrap;connectable=0;strokeColor=inherit;overflow=hidden;fillColor=none;top=0;left=0;bottom=0;right=0;pointerEvents=1;fontSize=16;" vertex="1" parent="vSFo7Jb99_2Wq5jZSn7a-321">
          <mxGeometry width="27" height="20" as="geometry">
            <mxRectangle width="27" height="20" as="alternateBounds" />
          </mxGeometry>
        </mxCell>
        <mxCell id="vSFo7Jb99_2Wq5jZSn7a-323" value="" style="shape=partialRectangle;html=1;whiteSpace=wrap;connectable=0;strokeColor=inherit;overflow=hidden;fillColor=none;top=0;left=0;bottom=0;right=0;pointerEvents=1;fontSize=16;" vertex="1" parent="vSFo7Jb99_2Wq5jZSn7a-321">
          <mxGeometry x="27" width="26" height="20" as="geometry">
            <mxRectangle width="26" height="20" as="alternateBounds" />
          </mxGeometry>
        </mxCell>
        <mxCell id="vSFo7Jb99_2Wq5jZSn7a-324" value="" style="shape=partialRectangle;html=1;whiteSpace=wrap;connectable=0;strokeColor=inherit;overflow=hidden;fillColor=none;top=0;left=0;bottom=0;right=0;pointerEvents=1;fontSize=16;" vertex="1" parent="vSFo7Jb99_2Wq5jZSn7a-321">
          <mxGeometry x="53" width="27" height="20" as="geometry">
            <mxRectangle width="27" height="20" as="alternateBounds" />
          </mxGeometry>
        </mxCell>
        <mxCell id="vSFo7Jb99_2Wq5jZSn7a-325" value="" style="shape=table;startSize=0;container=1;collapsible=0;childLayout=tableLayout;fontSize=16;fillColor=none;strokeColor=#1BA1E2;strokeWidth=3;" vertex="1" parent="1">
          <mxGeometry x="535" y="395" width="80" height="20" as="geometry" />
        </mxCell>
        <mxCell id="vSFo7Jb99_2Wq5jZSn7a-326" value="" style="shape=tableRow;horizontal=0;startSize=0;swimlaneHead=0;swimlaneBody=0;strokeColor=inherit;top=0;left=0;bottom=0;right=0;collapsible=0;dropTarget=0;fillColor=none;points=[[0,0.5],[1,0.5]];portConstraint=eastwest;fontSize=16;strokeWidth=3;" vertex="1" parent="vSFo7Jb99_2Wq5jZSn7a-325">
          <mxGeometry width="80" height="20" as="geometry" />
        </mxCell>
        <mxCell id="vSFo7Jb99_2Wq5jZSn7a-327" value="" style="shape=partialRectangle;html=1;whiteSpace=wrap;connectable=0;strokeColor=inherit;overflow=hidden;fillColor=none;top=0;left=0;bottom=0;right=0;pointerEvents=1;fontSize=16;" vertex="1" parent="vSFo7Jb99_2Wq5jZSn7a-326">
          <mxGeometry width="27" height="20" as="geometry">
            <mxRectangle width="27" height="20" as="alternateBounds" />
          </mxGeometry>
        </mxCell>
        <mxCell id="vSFo7Jb99_2Wq5jZSn7a-328" value="" style="shape=partialRectangle;html=1;whiteSpace=wrap;connectable=0;strokeColor=inherit;overflow=hidden;fillColor=none;top=0;left=0;bottom=0;right=0;pointerEvents=1;fontSize=16;" vertex="1" parent="vSFo7Jb99_2Wq5jZSn7a-326">
          <mxGeometry x="27" width="26" height="20" as="geometry">
            <mxRectangle width="26" height="20" as="alternateBounds" />
          </mxGeometry>
        </mxCell>
        <mxCell id="vSFo7Jb99_2Wq5jZSn7a-329" value="" style="shape=partialRectangle;html=1;whiteSpace=wrap;connectable=0;strokeColor=inherit;overflow=hidden;fillColor=none;top=0;left=0;bottom=0;right=0;pointerEvents=1;fontSize=16;" vertex="1" parent="vSFo7Jb99_2Wq5jZSn7a-326">
          <mxGeometry x="53" width="27" height="20" as="geometry">
            <mxRectangle width="27" height="20" as="alternateBounds" />
          </mxGeometry>
        </mxCell>
        <mxCell id="vSFo7Jb99_2Wq5jZSn7a-330" value="" style="shape=table;startSize=0;container=1;collapsible=0;childLayout=tableLayout;fontSize=16;fillColor=none;strokeColor=#1BA1E2;strokeWidth=3;" vertex="1" parent="1">
          <mxGeometry x="640" y="395" width="80" height="20" as="geometry" />
        </mxCell>
        <mxCell id="vSFo7Jb99_2Wq5jZSn7a-331" value="" style="shape=tableRow;horizontal=0;startSize=0;swimlaneHead=0;swimlaneBody=0;strokeColor=inherit;top=0;left=0;bottom=0;right=0;collapsible=0;dropTarget=0;fillColor=none;points=[[0,0.5],[1,0.5]];portConstraint=eastwest;fontSize=16;strokeWidth=3;" vertex="1" parent="vSFo7Jb99_2Wq5jZSn7a-330">
          <mxGeometry width="80" height="20" as="geometry" />
        </mxCell>
        <mxCell id="vSFo7Jb99_2Wq5jZSn7a-332" value="" style="shape=partialRectangle;html=1;whiteSpace=wrap;connectable=0;strokeColor=inherit;overflow=hidden;fillColor=none;top=0;left=0;bottom=0;right=0;pointerEvents=1;fontSize=16;" vertex="1" parent="vSFo7Jb99_2Wq5jZSn7a-331">
          <mxGeometry width="27" height="20" as="geometry">
            <mxRectangle width="27" height="20" as="alternateBounds" />
          </mxGeometry>
        </mxCell>
        <mxCell id="vSFo7Jb99_2Wq5jZSn7a-333" value="" style="shape=partialRectangle;html=1;whiteSpace=wrap;connectable=0;strokeColor=inherit;overflow=hidden;fillColor=none;top=0;left=0;bottom=0;right=0;pointerEvents=1;fontSize=16;" vertex="1" parent="vSFo7Jb99_2Wq5jZSn7a-331">
          <mxGeometry x="27" width="26" height="20" as="geometry">
            <mxRectangle width="26" height="20" as="alternateBounds" />
          </mxGeometry>
        </mxCell>
        <mxCell id="vSFo7Jb99_2Wq5jZSn7a-334" value="" style="shape=partialRectangle;html=1;whiteSpace=wrap;connectable=0;strokeColor=inherit;overflow=hidden;fillColor=none;top=0;left=0;bottom=0;right=0;pointerEvents=1;fontSize=16;" vertex="1" parent="vSFo7Jb99_2Wq5jZSn7a-331">
          <mxGeometry x="53" width="27" height="20" as="geometry">
            <mxRectangle width="27" height="20" as="alternateBounds" />
          </mxGeometry>
        </mxCell>
        <mxCell id="vSFo7Jb99_2Wq5jZSn7a-335" value="&lt;font style=&quot;font-size: 16px;&quot; face=&quot;Courier New&quot;&gt;q&lt;sub&gt;2&lt;/sub&gt;&lt;/font&gt;" style="text;html=1;strokeColor=none;fillColor=none;align=center;verticalAlign=middle;whiteSpace=wrap;rounded=0;fontColor=#FFFFFF;" vertex="1" parent="1">
          <mxGeometry x="410" y="390" width="20" height="30" as="geometry" />
        </mxCell>
        <mxCell id="vSFo7Jb99_2Wq5jZSn7a-336" value="&lt;font style=&quot;font-size: 16px;&quot; face=&quot;Courier New&quot;&gt;k&lt;sub&gt;2&lt;/sub&gt;&lt;/font&gt;" style="text;html=1;strokeColor=none;fillColor=none;align=center;verticalAlign=middle;whiteSpace=wrap;rounded=0;fontColor=#FFFFFF;" vertex="1" parent="1">
          <mxGeometry x="515" y="390" width="20" height="30" as="geometry" />
        </mxCell>
        <mxCell id="vSFo7Jb99_2Wq5jZSn7a-337" value="&lt;font style=&quot;font-size: 16px;&quot; face=&quot;Courier New&quot;&gt;v&lt;sub&gt;2&lt;/sub&gt;&lt;/font&gt;" style="text;html=1;strokeColor=none;fillColor=none;align=center;verticalAlign=middle;whiteSpace=wrap;rounded=0;fontColor=#FFFFFF;" vertex="1" parent="1">
          <mxGeometry x="620" y="390" width="20" height="30" as="geometry" />
        </mxCell>
        <mxCell id="vSFo7Jb99_2Wq5jZSn7a-340" value="" style="curved=1;endArrow=classic;html=1;rounded=0;exitX=0.5;exitY=0;exitDx=0;exitDy=0;strokeColor=#006eaf;strokeWidth=2;dashed=1;opacity=75;" edge="1" parent="1" source="vSFo7Jb99_2Wq5jZSn7a-286" target="vSFo7Jb99_2Wq5jZSn7a-292">
          <mxGeometry width="50" height="50" relative="1" as="geometry">
            <mxPoint x="270" y="260" as="sourcePoint" />
            <mxPoint x="320" y="210" as="targetPoint" />
            <Array as="points">
              <mxPoint x="160" y="350" />
              <mxPoint x="250" y="330" />
            </Array>
          </mxGeometry>
        </mxCell>
        <mxCell id="vSFo7Jb99_2Wq5jZSn7a-342" value="" style="curved=1;endArrow=classic;html=1;rounded=0;strokeColor=#006eaf;strokeWidth=2;dashed=1;entryX=0.5;entryY=0;entryDx=0;entryDy=0;exitX=0.5;exitY=0;exitDx=0;exitDy=0;exitPerimeter=0;opacity=75;" edge="1" parent="1" source="vSFo7Jb99_2Wq5jZSn7a-287" target="vSFo7Jb99_2Wq5jZSn7a-325">
          <mxGeometry width="50" height="50" relative="1" as="geometry">
            <mxPoint x="140" y="390" as="sourcePoint" />
            <mxPoint x="351" y="295" as="targetPoint" />
            <Array as="points">
              <mxPoint x="300" y="350" />
              <mxPoint x="620" y="320" />
            </Array>
          </mxGeometry>
        </mxCell>
        <mxCell id="vSFo7Jb99_2Wq5jZSn7a-343" value="" style="shape=image;html=1;verticalAlign=top;verticalLabelPosition=bottom;labelBackgroundColor=#ffffff;imageAspect=0;aspect=fixed;image=https://cdn4.iconfinder.com/data/icons/evil-icons-user-interface/64/statistics-128.png;imageBorder=none;" vertex="1" parent="1">
          <mxGeometry x="80" y="200" width="120" height="120" as="geometry" />
        </mxCell>
        <mxCell id="vSFo7Jb99_2Wq5jZSn7a-344" value="" style="endArrow=classic;html=1;rounded=0;fillColor=#1ba1e2;strokeColor=#006EAF;strokeWidth=3;exitX=0.5;exitY=0;exitDx=0;exitDy=0;" edge="1" parent="1">
          <mxGeometry width="50" height="50" relative="1" as="geometry">
            <mxPoint x="140" y="340" as="sourcePoint" />
            <mxPoint x="140" y="305" as="targetPoint" />
          </mxGeometry>
        </mxCell>
        <mxCell id="vSFo7Jb99_2Wq5jZSn7a-345" value="&lt;font size=&quot;1&quot; face=&quot;Courier New&quot;&gt;&lt;i style=&quot;font-size: 20px;&quot;&gt;Σ&lt;/i&gt;&lt;/font&gt;" style="ellipse;whiteSpace=wrap;html=1;aspect=fixed;fillColor=#006eaf;strokeColor=#006eaf;strokeWidth=2;opacity=60;" vertex="1" parent="1">
          <mxGeometry x="220" y="195" width="50" height="50" as="geometry" />
        </mxCell>
        <mxCell id="vSFo7Jb99_2Wq5jZSn7a-346" value="" style="endArrow=classic;html=1;rounded=0;fillColor=#1ba1e2;strokeColor=#006EAF;strokeWidth=3;exitX=0.5;exitY=0;exitDx=0;exitDy=0;" edge="1" parent="1">
          <mxGeometry width="50" height="50" relative="1" as="geometry">
            <mxPoint x="244.75" y="195" as="sourcePoint" />
            <mxPoint x="244.75" y="160" as="targetPoint" />
          </mxGeometry>
        </mxCell>
        <mxCell id="vSFo7Jb99_2Wq5jZSn7a-347" value="" style="endArrow=classic;html=1;rounded=0;fillColor=#1ba1e2;strokeColor=#006EAF;strokeWidth=1;entryX=0.5;entryY=1;entryDx=0;entryDy=0;dashed=1;opacity=75;" edge="1" parent="1" target="vSFo7Jb99_2Wq5jZSn7a-345">
          <mxGeometry width="50" height="50" relative="1" as="geometry">
            <mxPoint x="210" y="280" as="sourcePoint" />
            <mxPoint x="284.75" y="280" as="targetPoint" />
            <Array as="points">
              <mxPoint x="245" y="280" />
            </Array>
          </mxGeometry>
        </mxCell>
        <mxCell id="vSFo7Jb99_2Wq5jZSn7a-354" value="" style="shape=table;startSize=0;container=1;collapsible=0;childLayout=tableLayout;fontSize=16;fillColor=none;strokeColor=#1BA1E2;strokeWidth=3;" vertex="1" parent="1">
          <mxGeometry x="205" y="140" width="80" height="20" as="geometry" />
        </mxCell>
        <mxCell id="vSFo7Jb99_2Wq5jZSn7a-355" value="" style="shape=tableRow;horizontal=0;startSize=0;swimlaneHead=0;swimlaneBody=0;strokeColor=inherit;top=0;left=0;bottom=0;right=0;collapsible=0;dropTarget=0;fillColor=none;points=[[0,0.5],[1,0.5]];portConstraint=eastwest;fontSize=16;strokeWidth=3;" vertex="1" parent="vSFo7Jb99_2Wq5jZSn7a-354">
          <mxGeometry width="80" height="20" as="geometry" />
        </mxCell>
        <mxCell id="vSFo7Jb99_2Wq5jZSn7a-356" value="" style="shape=partialRectangle;html=1;whiteSpace=wrap;connectable=0;strokeColor=inherit;overflow=hidden;fillColor=none;top=0;left=0;bottom=0;right=0;pointerEvents=1;fontSize=16;" vertex="1" parent="vSFo7Jb99_2Wq5jZSn7a-355">
          <mxGeometry width="27" height="20" as="geometry">
            <mxRectangle width="27" height="20" as="alternateBounds" />
          </mxGeometry>
        </mxCell>
        <mxCell id="vSFo7Jb99_2Wq5jZSn7a-357" value="" style="shape=partialRectangle;html=1;whiteSpace=wrap;connectable=0;strokeColor=inherit;overflow=hidden;fillColor=none;top=0;left=0;bottom=0;right=0;pointerEvents=1;fontSize=16;" vertex="1" parent="vSFo7Jb99_2Wq5jZSn7a-355">
          <mxGeometry x="27" width="26" height="20" as="geometry">
            <mxRectangle width="26" height="20" as="alternateBounds" />
          </mxGeometry>
        </mxCell>
        <mxCell id="vSFo7Jb99_2Wq5jZSn7a-358" value="" style="shape=partialRectangle;html=1;whiteSpace=wrap;connectable=0;strokeColor=inherit;overflow=hidden;fillColor=none;top=0;left=0;bottom=0;right=0;pointerEvents=1;fontSize=16;" vertex="1" parent="vSFo7Jb99_2Wq5jZSn7a-355">
          <mxGeometry x="53" width="27" height="20" as="geometry">
            <mxRectangle width="27" height="20" as="alternateBounds" />
          </mxGeometry>
        </mxCell>
        <mxCell id="vSFo7Jb99_2Wq5jZSn7a-359" value="&lt;font style=&quot;font-size: 16px;&quot; face=&quot;Courier New&quot;&gt;z&lt;sub&gt;1&lt;/sub&gt;&lt;/font&gt;" style="text;html=1;strokeColor=none;fillColor=none;align=center;verticalAlign=middle;whiteSpace=wrap;rounded=0;fontColor=#FFFFFF;" vertex="1" parent="1">
          <mxGeometry x="175" y="135" width="30" height="30" as="geometry" />
        </mxCell>
        <mxCell id="vSFo7Jb99_2Wq5jZSn7a-364" value="&lt;font style=&quot;font-size: 16px;&quot; face=&quot;Courier New&quot;&gt;x&lt;sub&gt;1&lt;/sub&gt;&lt;/font&gt;" style="text;html=1;strokeColor=none;fillColor=none;align=center;verticalAlign=middle;whiteSpace=wrap;rounded=0;fontColor=#FFFFFF;" vertex="1" parent="1">
          <mxGeometry x="175" y="510" width="30" height="30" as="geometry" />
        </mxCell>
        <mxCell id="vSFo7Jb99_2Wq5jZSn7a-365" value="&lt;font style=&quot;font-size: 16px;&quot; face=&quot;Courier New&quot;&gt;x&lt;sub&gt;2&lt;/sub&gt;&lt;/font&gt;" style="text;html=1;strokeColor=none;fillColor=none;align=center;verticalAlign=middle;whiteSpace=wrap;rounded=0;fontColor=#FFFFFF;" vertex="1" parent="1">
          <mxGeometry x="505" y="510" width="30" height="30" as="geometry" />
        </mxCell>
        <mxCell id="vSFo7Jb99_2Wq5jZSn7a-366" value="" style="shape=image;html=1;verticalAlign=top;verticalLabelPosition=bottom;labelBackgroundColor=#ffffff;imageAspect=0;aspect=fixed;image=https://cdn4.iconfinder.com/data/icons/evil-icons-user-interface/64/statistics-128.png;imageBorder=none;opacity=30;" vertex="1" parent="1">
          <mxGeometry x="410" y="200" width="120" height="120" as="geometry" />
        </mxCell>
        <mxCell id="vSFo7Jb99_2Wq5jZSn7a-367" value="" style="endArrow=classic;html=1;rounded=0;fillColor=#1ba1e2;strokeColor=#006EAF;strokeWidth=3;exitX=0.5;exitY=0;exitDx=0;exitDy=0;opacity=30;" edge="1" parent="1">
          <mxGeometry width="50" height="50" relative="1" as="geometry">
            <mxPoint x="470" y="340" as="sourcePoint" />
            <mxPoint x="470" y="305" as="targetPoint" />
          </mxGeometry>
        </mxCell>
        <mxCell id="vSFo7Jb99_2Wq5jZSn7a-368" value="&lt;font size=&quot;1&quot; face=&quot;Courier New&quot;&gt;&lt;i style=&quot;font-size: 20px;&quot;&gt;Σ&lt;/i&gt;&lt;/font&gt;" style="ellipse;whiteSpace=wrap;html=1;aspect=fixed;fillColor=#006eaf;strokeColor=#006eaf;strokeWidth=2;opacity=30;textOpacity=30;" vertex="1" parent="1">
          <mxGeometry x="550" y="195" width="50" height="50" as="geometry" />
        </mxCell>
        <mxCell id="vSFo7Jb99_2Wq5jZSn7a-369" value="" style="endArrow=classic;html=1;rounded=0;fillColor=#1ba1e2;strokeColor=#006EAF;strokeWidth=3;exitX=0.5;exitY=0;exitDx=0;exitDy=0;" edge="1" parent="1">
          <mxGeometry width="50" height="50" relative="1" as="geometry">
            <mxPoint x="574.75" y="195" as="sourcePoint" />
            <mxPoint x="574.75" y="160" as="targetPoint" />
          </mxGeometry>
        </mxCell>
        <mxCell id="vSFo7Jb99_2Wq5jZSn7a-370" value="" style="endArrow=classic;html=1;rounded=0;fillColor=#1ba1e2;strokeColor=#006EAF;strokeWidth=1;entryX=0.5;entryY=1;entryDx=0;entryDy=0;dashed=1;opacity=75;" edge="1" parent="1" target="vSFo7Jb99_2Wq5jZSn7a-368">
          <mxGeometry width="50" height="50" relative="1" as="geometry">
            <mxPoint x="540" y="280" as="sourcePoint" />
            <mxPoint x="614.75" y="280" as="targetPoint" />
            <Array as="points">
              <mxPoint x="575" y="280" />
            </Array>
          </mxGeometry>
        </mxCell>
        <mxCell id="vSFo7Jb99_2Wq5jZSn7a-371" value="" style="shape=table;startSize=0;container=1;collapsible=0;childLayout=tableLayout;fontSize=16;fillColor=none;strokeColor=#1BA1E2;strokeWidth=3;" vertex="1" parent="1">
          <mxGeometry x="535" y="140" width="80" height="20" as="geometry" />
        </mxCell>
        <mxCell id="vSFo7Jb99_2Wq5jZSn7a-372" value="" style="shape=tableRow;horizontal=0;startSize=0;swimlaneHead=0;swimlaneBody=0;strokeColor=inherit;top=0;left=0;bottom=0;right=0;collapsible=0;dropTarget=0;fillColor=none;points=[[0,0.5],[1,0.5]];portConstraint=eastwest;fontSize=16;strokeWidth=3;" vertex="1" parent="vSFo7Jb99_2Wq5jZSn7a-371">
          <mxGeometry width="80" height="20" as="geometry" />
        </mxCell>
        <mxCell id="vSFo7Jb99_2Wq5jZSn7a-373" value="" style="shape=partialRectangle;html=1;whiteSpace=wrap;connectable=0;strokeColor=inherit;overflow=hidden;fillColor=none;top=0;left=0;bottom=0;right=0;pointerEvents=1;fontSize=16;" vertex="1" parent="vSFo7Jb99_2Wq5jZSn7a-372">
          <mxGeometry width="27" height="20" as="geometry">
            <mxRectangle width="27" height="20" as="alternateBounds" />
          </mxGeometry>
        </mxCell>
        <mxCell id="vSFo7Jb99_2Wq5jZSn7a-374" value="" style="shape=partialRectangle;html=1;whiteSpace=wrap;connectable=0;strokeColor=inherit;overflow=hidden;fillColor=none;top=0;left=0;bottom=0;right=0;pointerEvents=1;fontSize=16;" vertex="1" parent="vSFo7Jb99_2Wq5jZSn7a-372">
          <mxGeometry x="27" width="26" height="20" as="geometry">
            <mxRectangle width="26" height="20" as="alternateBounds" />
          </mxGeometry>
        </mxCell>
        <mxCell id="vSFo7Jb99_2Wq5jZSn7a-375" value="" style="shape=partialRectangle;html=1;whiteSpace=wrap;connectable=0;strokeColor=inherit;overflow=hidden;fillColor=none;top=0;left=0;bottom=0;right=0;pointerEvents=1;fontSize=16;" vertex="1" parent="vSFo7Jb99_2Wq5jZSn7a-372">
          <mxGeometry x="53" width="27" height="20" as="geometry">
            <mxRectangle width="27" height="20" as="alternateBounds" />
          </mxGeometry>
        </mxCell>
        <mxCell id="vSFo7Jb99_2Wq5jZSn7a-376" value="&lt;font style=&quot;font-size: 16px;&quot; face=&quot;Courier New&quot;&gt;z&lt;sub&gt;2&lt;/sub&gt;&lt;/font&gt;" style="text;html=1;strokeColor=none;fillColor=none;align=center;verticalAlign=middle;whiteSpace=wrap;rounded=0;fontColor=#FFFFFF;" vertex="1" parent="1">
          <mxGeometry x="505" y="135" width="30" height="30" as="geometry" />
        </mxCell>
        <mxCell id="vSFo7Jb99_2Wq5jZSn7a-379" value="&lt;font style=&quot;font-size: 16px;&quot; face=&quot;Courier New&quot;&gt;q&lt;sub&gt;1&lt;/sub&gt;k&lt;sub&gt;1&lt;/sub&gt;&lt;/font&gt;" style="text;html=1;strokeColor=none;fillColor=none;align=center;verticalAlign=middle;whiteSpace=wrap;rounded=0;fontColor=#FFFFFF;" vertex="1" parent="1">
          <mxGeometry x="90" y="230" width="30" height="30" as="geometry" />
        </mxCell>
        <mxCell id="vSFo7Jb99_2Wq5jZSn7a-380" value="&lt;font style=&quot;font-size: 16px;&quot; face=&quot;Courier New&quot;&gt;q&lt;sub&gt;1&lt;/sub&gt;k&lt;sub&gt;2&lt;/sub&gt;&lt;/font&gt;" style="text;html=1;strokeColor=none;fillColor=none;align=center;verticalAlign=middle;whiteSpace=wrap;rounded=0;fontColor=#FFFFFF;" vertex="1" parent="1">
          <mxGeometry x="123" y="210" width="30" height="30" as="geometry" />
        </mxCell>
        <mxCell id="vSFo7Jb99_2Wq5jZSn7a-381" value="&lt;font style=&quot;font-size: 16px;&quot; face=&quot;Courier New&quot;&gt;q&lt;sub&gt;2&lt;/sub&gt;k&lt;sub&gt;1&lt;/sub&gt;&lt;/font&gt;" style="text;html=1;strokeColor=none;fillColor=none;align=center;verticalAlign=middle;whiteSpace=wrap;rounded=0;fontColor=#FFFFFF;opacity=30;textOpacity=30;" vertex="1" parent="1">
          <mxGeometry x="425" y="230" width="30" height="30" as="geometry" />
        </mxCell>
        <mxCell id="vSFo7Jb99_2Wq5jZSn7a-382" value="&lt;font style=&quot;font-size: 16px;&quot; face=&quot;Courier New&quot;&gt;q&lt;sub&gt;2&lt;/sub&gt;k&lt;sub&gt;2&lt;/sub&gt;&lt;/font&gt;" style="text;html=1;strokeColor=none;fillColor=none;align=center;verticalAlign=middle;whiteSpace=wrap;rounded=0;fontColor=#FFFFFF;opacity=30;textOpacity=30;" vertex="1" parent="1">
          <mxGeometry x="453" y="210" width="30" height="30" as="geometry" />
        </mxCell>
        <mxCell id="vSFo7Jb99_2Wq5jZSn7a-383" value="&lt;font style=&quot;font-size: 16px;&quot; face=&quot;Courier New&quot;&gt;...&lt;/font&gt;" style="text;html=1;strokeColor=none;fillColor=none;align=center;verticalAlign=middle;whiteSpace=wrap;rounded=0;fontColor=#FFFFFF;" vertex="1" parent="1">
          <mxGeometry x="155" y="195" width="30" height="30" as="geometry" />
        </mxCell>
        <mxCell id="vSFo7Jb99_2Wq5jZSn7a-384" value="&lt;font style=&quot;font-size: 16px;&quot; face=&quot;Courier New&quot;&gt;...&lt;/font&gt;" style="text;html=1;strokeColor=none;fillColor=none;align=center;verticalAlign=middle;whiteSpace=wrap;rounded=0;fontColor=#FFFFFF;" vertex="1" parent="1">
          <mxGeometry x="485" y="195" width="30" height="30" as="geometry" />
        </mxCell>
        <mxCell id="vSFo7Jb99_2Wq5jZSn7a-385" value="" style="endArrow=classic;html=1;rounded=0;fillColor=#1ba1e2;strokeColor=#006eaf;strokeWidth=3;entryX=1;entryY=0.5;entryDx=0;entryDy=0;dashed=1;exitX=0.5;exitY=0;exitDx=0;exitDy=0;opacity=75;" edge="1" parent="1" source="vSFo7Jb99_2Wq5jZSn7a-296" target="vSFo7Jb99_2Wq5jZSn7a-345">
          <mxGeometry width="50" height="50" relative="1" as="geometry">
            <mxPoint x="220" y="290" as="sourcePoint" />
            <mxPoint x="255" y="255" as="targetPoint" />
            <Array as="points">
              <mxPoint x="350" y="220" />
            </Array>
          </mxGeometry>
        </mxCell>
        <mxCell id="vSFo7Jb99_2Wq5jZSn7a-386" value="" style="endArrow=none;html=1;rounded=0;fillColor=#1ba1e2;strokeColor=#006eaf;strokeWidth=3;dashed=1;exitX=0.5;exitY=0;exitDx=0;exitDy=0;endFill=0;opacity=75;" edge="1" parent="1" source="vSFo7Jb99_2Wq5jZSn7a-330">
          <mxGeometry width="50" height="50" relative="1" as="geometry">
            <mxPoint x="360" y="405" as="sourcePoint" />
            <mxPoint x="350" y="360" as="targetPoint" />
            <Array as="points">
              <mxPoint x="680" y="360" />
            </Array>
          </mxGeometry>
        </mxCell>
      </root>
    </mxGraphModel>
  </diagram>
</mxfile>
